<svg xmlns="http://www.w3.org/2000/svg" viewBox="0 0 400 400" width="400" height="400">
  <defs>
    <linearGradient id="bg" x1="0%" y1="0%" x2="100%" y2="100%">
      <stop offset="0%" style="stop-color:#6C5CE7"/>
      <stop offset="100%" style="stop-color:#4834A8"/>
    </linearGradient>
  </defs>
  <rect width="400" height="400" rx="24" fill="url(#bg)"/>
  <!-- Muffin wrapper (bottom) -->
  <path d="M140 200 L150 275 Q155 285 200 285 Q245 285 250 275 L260 200Z" fill="#D4A56A"/>
  <!-- Wrapper lines -->
  <line x1="153" y1="210" x2="157" y2="270" stroke="#C0944A" stroke-width="1.5" opacity="0.5"/>
  <line x1="170" y1="205" x2="172" y2="278" stroke="#C0944A" stroke-width="1.5" opacity="0.5"/>
  <line x1="187" y1="202" x2="188" y2="282" stroke="#C0944A" stroke-width="1.5" opacity="0.5"/>
  <line x1="213" y1="202" x2="212" y2="282" stroke="#C0944A" stroke-width="1.5" opacity="0.5"/>
  <line x1="230" y1="205" x2="228" y2="278" stroke="#C0944A" stroke-width="1.5" opacity="0.5"/>
  <line x1="247" y1="210" x2="243" y2="270" stroke="#C0944A" stroke-width="1.5" opacity="0.5"/>
  <!-- Muffin top -->
  <ellipse cx="200" cy="175" rx="85" ry="40" fill="#E8BE7A"/>
  <!-- Muffin dome -->
  <path d="M125 180 Q130 120 165 105 Q200 90 235 105 Q270 120 275 180" fill="#E2B468"/>
  <!-- Top bumps -->
  <circle cx="165" cy="135" r="28" fill="#E8BE7A" opacity="0.8"/>
  <circle cx="200" cy="120" r="30" fill="#E8BE7A" opacity="0.8"/>
  <circle cx="235" cy="135" r="28" fill="#E8BE7A" opacity="0.8"/>
  <!-- Blueberries -->
  <circle cx="175" cy="150" r="9" fill="#4834A8"/>
  <circle cx="175" cy="150" r="9" fill="#3B2D8E" opacity="0.8"/>
  <circle cx="178" cy="147" r="3" fill="#7C6FD4" opacity="0.5"/>
  <circle cx="215" cy="140" r="8" fill="#3B2D8E" opacity="0.8"/>
  <circle cx="217" cy="138" r="2.5" fill="#7C6FD4" opacity="0.5"/>
  <circle cx="195" cy="165" r="8" fill="#3B2D8E" opacity="0.8"/>
  <circle cx="197" cy="163" r="2.5" fill="#7C6FD4" opacity="0.5"/>
  <circle cx="240" cy="158" r="7" fill="#3B2D8E" opacity="0.8"/>
  <circle cx="242" cy="156" r="2" fill="#7C6FD4" opacity="0.5"/>
  <circle cx="155" cy="170" r="7" fill="#3B2D8E" opacity="0.7"/>
  <!-- Sugar crystals -->
  <circle cx="185" cy="125" r="1.5" fill="#FFFFFF" opacity="0.4"/>
  <circle cx="210" cy="130" r="1.5" fill="#FFFFFF" opacity="0.35"/>
  <circle cx="225" cy="145" r="1" fill="#FFFFFF" opacity="0.4"/>
  <circle cx="165" cy="145" r="1" fill="#FFFFFF" opacity="0.35"/>
  <!-- Label -->
  <text x="200" y="340" font-family="system-ui, -apple-system, sans-serif" font-size="26" font-weight="600" fill="#FFFFFF" text-anchor="middle" opacity="0.95">Blueberry Muffin</text>
</svg>