<svg xmlns="http://www.w3.org/2000/svg" viewBox="0 0 400 400" width="400" height="400">
  <defs>
    <linearGradient id="bg" x1="0%" y1="0%" x2="100%" y2="100%">
      <stop offset="0%" style="stop-color:#8B6F4E"/>
      <stop offset="100%" style="stop-color:#5C4033"/>
    </linearGradient>
  </defs>
  <rect width="400" height="400" rx="24" fill="url(#bg)"/>
  <!-- Cup -->
  <path d="M110 150 L130 270 Q135 280 200 280 Q265 280 270 270 L290 150Z" fill="#FFFFFF" opacity="0.95"/>
  <ellipse cx="200" cy="150" rx="90" ry="18" fill="#FFFFFF" opacity="0.95"/>
  <!-- Handle -->
  <path d="M290 175 Q330 180 330 215 Q330 250 290 255" fill="none" stroke="#FFFFFF" stroke-width="14" stroke-linecap="round" opacity="0.9"/>
  <!-- Foam top -->
  <ellipse cx="200" cy="150" rx="82" ry="14" fill="#F5E6D3"/>
  <!-- Foam dots (cappuccino texture) -->
  <circle cx="180" cy="145" r="8" fill="#D4A574" opacity="0.5"/>
  <circle cx="210" cy="148" r="10" fill="#D4A574" opacity="0.4"/>
  <circle cx="195" cy="155" r="6" fill="#D4A574" opacity="0.4"/>
  <circle cx="225" cy="145" r="7" fill="#D4A574" opacity="0.3"/>
  <circle cx="170" cy="152" r="5" fill="#D4A574" opacity="0.35"/>
  <!-- Cocoa dust dots -->
  <circle cx="185" cy="148" r="2" fill="#6B3A2A" opacity="0.3"/>
  <circle cx="205" cy="143" r="1.5" fill="#6B3A2A" opacity="0.3"/>
  <circle cx="218" cy="152" r="2" fill="#6B3A2A" opacity="0.25"/>
  <circle cx="192" cy="140" r="1" fill="#6B3A2A" opacity="0.3"/>
  <!-- Label -->
  <text x="200" y="340" font-family="system-ui, -apple-system, sans-serif" font-size="28" font-weight="600" fill="#F5F0EB" text-anchor="middle" opacity="0.95">Cappuccino</text>
</svg>